<?xml version="1.0" encoding="UTF-8" standalone="no"?>
<svg
   xmlns:dc="http://purl.org/dc/elements/1.1/"
   xmlns:cc="http://creativecommons.org/ns#"
   xmlns:rdf="http://www.w3.org/1999/02/22-rdf-syntax-ns#"
   xmlns:svg="http://www.w3.org/2000/svg"
   xmlns="http://www.w3.org/2000/svg"
   xmlns:sodipodi="http://sodipodi.sourceforge.net/DTD/sodipodi-0.dtd"
   xmlns:inkscape="http://www.inkscape.org/namespaces/inkscape"
   fill-opacity="1"
   color-rendering="auto"
   color-interpolation="auto"
   stroke="black"
   text-rendering="auto"
   stroke-linecap="square"
   width="1024"
   stroke-miterlimit="10"
   stroke-opacity="1"
   shape-rendering="auto"
   fill="black"
   stroke-dasharray="none"
   font-weight="normal"
   stroke-width="1"
   height="561"
   font-family="'Dialog'"
   font-style="normal"
   stroke-linejoin="miter"
   font-size="12"
   stroke-dashoffset="0"
   image-rendering="auto"
   id="svg3747"
   version="1.1"
   inkscape:version="0.48.4 r9939"
   sodipodi:docname="relations_01.svg">
  <metadata
     id="metadata4051">
    <rdf:RDF>
      <cc:Work
         rdf:about="">
        <dc:format>image/svg+xml</dc:format>
        <dc:type
           rdf:resource="http://purl.org/dc/dcmitype/StillImage" />
      </cc:Work>
    </rdf:RDF>
  </metadata>
  <sodipodi:namedview
     pagecolor="#ffffff"
     bordercolor="#666666"
     borderopacity="1"
     objecttolerance="10"
     gridtolerance="10"
     guidetolerance="10"
     inkscape:pageopacity="0"
     inkscape:pageshadow="2"
     inkscape:window-width="1871"
     inkscape:window-height="1056"
     id="namedview4049"
     showgrid="false"
     inkscape:zoom="1.234375"
     inkscape:cx="942.58611"
     inkscape:cy="412.22378"
     inkscape:window-x="49"
     inkscape:window-y="24"
     inkscape:window-maximized="1"
     inkscape:current-layer="svg3747" />
  <!--Generated by ySVG-->
  <defs
     id="genericDefs" />
  <g
     id="g3750">
    <defs
       id="defs1">
      <clipPath
         clipPathUnits="userSpaceOnUse"
         id="clipPath1">
        <path
           d="M0 0 L1024 0 L1024 561 L0 561 L0 0 Z"
           id="path3754" />
      </clipPath>
      <clipPath
         clipPathUnits="userSpaceOnUse"
         id="clipPath2">
        <path
           d="M-445 -561 L579 -561 L579 0 L-445 0 L-445 -561 Z"
           id="path3757" />
      </clipPath>
    </defs>
    <g
       fill="white"
       transform="translate(445,561)"
       stroke="white"
       id="g3759">
      <rect
         x="-445"
         width="1024"
         height="561"
         y="-561"
         clip-path="url(#clipPath2)"
         stroke="none"
         id="rect3761" />
    </g>
    <g
       fill="rgb(245,245,245)"
       transform="matrix(1,0,0,1,445,561)"
       stroke="rgb(245,245,245)"
       id="g3763">
      <rect
         x="-15"
         y="-341.4609"
         clip-path="url(#clipPath2)"
         width="80"
         rx="4"
         ry="4"
         height="255.2109"
         stroke="none"
         id="rect3765" />
      <rect
         x="-15"
         y="-341.4609"
         clip-path="url(#clipPath2)"
         fill="rgb(235,235,235)"
         width="80"
         height="21.4609"
         stroke="none"
         id="rect3767" />
    </g>
    <g
       font-size="15"
       stroke-miterlimit="1.45"
       font-family="sans-serif"
       transform="matrix(1,0,0,1,445,561)"
       stroke-linecap="butt"
       id="g3769">
      <text
         x="43.437"
         xml:space="preserve"
         y="-325.5376"
         clip-path="url(#clipPath2)"
         stroke="none"
         id="text3771">rel</text>
      <rect
         x="-15"
         y="-341.4609"
         clip-path="url(#clipPath2)"
         fill="none"
         width="80"
         stroke-dasharray="6,2"
         rx="4"
         ry="4"
         height="255.2109"
         id="rect3773" />
    </g>
    <g
       fill="rgb(0,204,255)"
       transform="matrix(1,0,0,1,445,561)"
       stroke="rgb(0,204,255)"
       id="g3775">
      <circle
         r="25"
         clip-path="url(#clipPath2)"
         cx="25"
         cy="-280"
         stroke="none"
         id="circle3777"
         d="m 50,-280 c 0,13.80712 -11.192881,25 -25,25 -13.807119,0 -25,-11.19288 -25,-25 0,-13.80712 11.192881,-25 25,-25 13.807119,0 25,11.19288 25,25 z" />
    </g>
    <g
       stroke-miterlimit="1.45"
       font-family="sans-serif"
       transform="matrix(1,0,0,1,445,561)"
       stroke-linecap="butt"
       id="g3779">
      <text
         x="11.2363"
         xml:space="preserve"
         y="-275.8457"
         clip-path="url(#clipPath2)"
         stroke="none"
         id="text3781">org2</text>
      <circle
         fill="none"
         r="25"
         clip-path="url(#clipPath2)"
         cx="25"
         cy="-280"
         id="circle3783"
         d="m 50,-280 c 0,13.80712 -11.192881,25 -25,25 -13.807119,0 -25,-11.19288 -25,-25 0,-13.80712 11.192881,-25 25,-25 13.807119,0 25,11.19288 25,25 z" />
    </g>
    <g
       fill="rgb(0,204,255)"
       transform="matrix(1,0,0,1,445,561)"
       stroke="rgb(0,204,255)"
       id="g3785">
      <circle
         r="25"
         clip-path="url(#clipPath2)"
         cx="25"
         cy="-126.25"
         stroke="none"
         id="circle3787"
         d="m 50,-126.25 c 0,13.80712 -11.192881,25 -25,25 -13.807119,0 -25,-11.19288 -25,-25 0,-13.80712 11.192881,-25 25,-25 13.807119,0 25,11.19288 25,25 z" />
    </g>
    <g
       stroke-miterlimit="1.45"
       font-family="sans-serif"
       transform="matrix(1,0,0,1,445,561)"
       stroke-linecap="butt"
       id="g3789">
      <text
         x="11.2363"
         xml:space="preserve"
         y="-122.0957"
         clip-path="url(#clipPath2)"
         stroke="none"
         id="text3791">org3</text>
      <circle
         fill="none"
         r="25"
         clip-path="url(#clipPath2)"
         cx="25"
         cy="-126.25"
         id="circle3793"
         d="m 50,-126.25 c 0,13.80712 -11.192881,25 -25,25 -13.807119,0 -25,-11.19288 -25,-25 0,-13.80712 11.192881,-25 25,-25 13.807119,0 25,11.19288 25,25 z" />
    </g>
    <g
       fill="rgb(0,204,255)"
       transform="matrix(1,0,0,1,445,561)"
       stroke="rgb(0,204,255)"
       id="g3795">
      <circle
         r="25"
         clip-path="url(#clipPath2)"
         cx="25"
         cy="-433.75"
         stroke="none"
         id="circle3797"
         d="m 50,-433.75 c 0,13.80712 -11.192881,25 -25,25 -13.807119,0 -25,-11.19288 -25,-25 0,-13.80712 11.192881,-25 25,-25 13.807119,0 25,11.19288 25,25 z" />
    </g>
    <g
       stroke-miterlimit="1.45"
       font-family="sans-serif"
       transform="matrix(1,0,0,1,445,561)"
       stroke-linecap="butt"
       id="g3799">
      <text
         x="11.2363"
         xml:space="preserve"
         y="-429.5957"
         clip-path="url(#clipPath2)"
         stroke="none"
         id="text3801">org1</text>
      <circle
         fill="none"
         r="25"
         clip-path="url(#clipPath2)"
         cx="25"
         cy="-433.75"
         id="circle3803"
         d="m 50,-433.75 c 0,13.80712 -11.192881,25 -25,25 -13.807119,0 -25,-11.19288 -25,-25 0,-13.80712 11.192881,-25 25,-25 13.807119,0 25,11.19288 25,25 z" />
    </g>
    <g
       fill="red"
       transform="matrix(1,0,0,1,445,561)"
       stroke="red"
       id="g3805">
      <circle
         r="25"
         clip-path="url(#clipPath2)"
         cx="163.2843"
         cy="-280"
         stroke="none"
         id="circle3807"
         d="m 188.2843,-280 c 0,13.80712 -11.19288,25 -25,25 -13.80712,0 -25,-11.19288 -25,-25 0,-13.80712 11.19288,-25 25,-25 13.80712,0 25,11.19288 25,25 z" />
    </g>
    <g
       stroke-miterlimit="1.45"
       font-family="sans-serif"
       transform="matrix(1,0,0,1,445,561)"
       stroke-linecap="butt"
       id="g3809">
      <text
         x="144.045"
         xml:space="preserve"
         y="-275.8457"
         clip-path="url(#clipPath2)"
         stroke="none"
         id="text3811">proj2b</text>
      <circle
         fill="none"
         r="25"
         clip-path="url(#clipPath2)"
         cx="163.2843"
         cy="-280"
         id="circle3813"
         d="m 188.2843,-280 c 0,13.80712 -11.19288,25 -25,25 -13.80712,0 -25,-11.19288 -25,-25 0,-13.80712 11.19288,-25 25,-25 13.80712,0 25,11.19288 25,25 z" />
    </g>
    <g
       fill="red"
       transform="matrix(1,0,0,1,445,561)"
       stroke="red"
       id="g3815">
      <circle
         r="25"
         clip-path="url(#clipPath2)"
         cx="163.2843"
         cy="-520"
         stroke="none"
         id="circle3817"
         d="m 188.2843,-520 c 0,13.80712 -11.19288,25 -25,25 -13.80712,0 -25,-11.19288 -25,-25 0,-13.80712 11.19288,-25 25,-25 13.80712,0 25,11.19288 25,25 z" />
    </g>
    <g
       stroke-miterlimit="1.45"
       font-family="sans-serif"
       transform="matrix(1,0,0,1,445,561)"
       stroke-linecap="butt"
       id="g3819">
      <text
         x="144.1768"
         xml:space="preserve"
         y="-515.8457"
         clip-path="url(#clipPath2)"
         stroke="none"
         id="text3821">proj1a</text>
      <circle
         fill="none"
         r="25"
         clip-path="url(#clipPath2)"
         cx="163.2843"
         cy="-520"
         id="circle3823"
         d="m 188.2843,-520 c 0,13.80712 -11.19288,25 -25,25 -13.80712,0 -25,-11.19288 -25,-25 0,-13.80712 11.19288,-25 25,-25 13.80712,0 25,11.19288 25,25 z" />
    </g>
    <g
       fill="red"
       transform="matrix(1,0,0,1,445,561)"
       stroke="red"
       id="g3825">
      <circle
         r="25"
         clip-path="url(#clipPath2)"
         cx="163.2843"
         cy="-360"
         stroke="none"
         id="circle3827"
         d="m 188.2843,-360 c 0,13.80712 -11.19288,25 -25,25 -13.80712,0 -25,-11.19288 -25,-25 0,-13.80712 11.19288,-25 25,-25 13.80712,0 25,11.19288 25,25 z" />
    </g>
    <g
       stroke-miterlimit="1.45"
       font-family="sans-serif"
       transform="matrix(1,0,0,1,445,561)"
       stroke-linecap="butt"
       id="g3829">
      <text
         x="144.1768"
         xml:space="preserve"
         y="-355.8457"
         clip-path="url(#clipPath2)"
         stroke="none"
         id="text3831">proj2a</text>
      <circle
         fill="none"
         r="25"
         clip-path="url(#clipPath2)"
         cx="163.2843"
         cy="-360"
         id="circle3833"
         d="m 188.2843,-360 c 0,13.80712 -11.19288,25 -25,25 -13.80712,0 -25,-11.19288 -25,-25 0,-13.80712 11.19288,-25 25,-25 13.80712,0 25,11.19288 25,25 z" />
    </g>
    <g
       fill="red"
       transform="matrix(1,0,0,1,445,561)"
       stroke="red"
       id="g3835">
      <circle
         r="25"
         clip-path="url(#clipPath2)"
         cx="163.2843"
         cy="-200"
         stroke="none"
         id="circle3837"
         d="m 188.2843,-200 c 0,13.80712 -11.19288,25 -25,25 -13.80712,0 -25,-11.19288 -25,-25 0,-13.80712 11.19288,-25 25,-25 13.80712,0 25,11.19288 25,25 z" />
    </g>
    <g
       stroke-miterlimit="1.45"
       font-family="sans-serif"
       transform="matrix(1,0,0,1,445,561)"
       stroke-linecap="butt"
       id="g3839">
      <text
         x="144.5548"
         xml:space="preserve"
         y="-195.8457"
         clip-path="url(#clipPath2)"
         stroke="none"
         id="text3841">proj2c</text>
      <circle
         fill="none"
         r="25"
         clip-path="url(#clipPath2)"
         cx="163.2843"
         cy="-200"
         id="circle3843"
         d="m 188.2843,-200 c 0,13.80712 -11.19288,25 -25,25 -13.80712,0 -25,-11.19288 -25,-25 0,-13.80712 11.19288,-25 25,-25 13.80712,0 25,11.19288 25,25 z" />
    </g>
    <g
       fill="red"
       transform="matrix(1,0,0,1,445,561)"
       stroke="red"
       id="g3845">
      <circle
         r="25"
         clip-path="url(#clipPath2)"
         cx="163.2843"
         cy="-40"
         stroke="none"
         id="circle3847"
         d="m 188.2843,-40 c 0,13.807119 -11.19288,25 -25,25 -13.80712,0 -25,-11.192881 -25,-25 0,-13.807119 11.19288,-25 25,-25 13.80712,0 25,11.192881 25,25 z" />
    </g>
    <g
       stroke-miterlimit="1.45"
       font-family="sans-serif"
       transform="matrix(1,0,0,1,445,561)"
       stroke-linecap="butt"
       id="g3849">
      <text
         x="144.1768"
         xml:space="preserve"
         y="-35.8457"
         clip-path="url(#clipPath2)"
         stroke="none"
         id="text3851">proj3a</text>
      <circle
         fill="none"
         r="25"
         clip-path="url(#clipPath2)"
         cx="163.2843"
         cy="-40"
         id="circle3853"
         d="m 188.2843,-40 c 0,13.807119 -11.19288,25 -25,25 -13.80712,0 -25,-11.192881 -25,-25 0,-13.807119 11.19288,-25 25,-25 13.80712,0 25,11.192881 25,25 z" />
    </g>
    <g
       fill="red"
       transform="matrix(1,0,0,1,445,561)"
       stroke="red"
       id="g3855">
      <circle
         r="25"
         clip-path="url(#clipPath2)"
         cx="163.2843"
         cy="-120"
         stroke="none"
         id="circle3857"
         d="m 188.2843,-120 c 0,13.80712 -11.19288,25 -25,25 -13.80712,0 -25,-11.19288 -25,-25 0,-13.80712 11.19288,-25 25,-25 13.80712,0 25,11.19288 25,25 z" />
    </g>
    <g
       stroke-miterlimit="1.45"
       font-family="sans-serif"
       transform="matrix(1,0,0,1,445,561)"
       stroke-linecap="butt"
       id="g3859">
      <text
         x="144.045"
         xml:space="preserve"
         y="-115.8457"
         clip-path="url(#clipPath2)"
         stroke="none"
         id="text3861">proj3b</text>
      <circle
         fill="none"
         r="25"
         clip-path="url(#clipPath2)"
         cx="163.2843"
         cy="-120"
         id="circle3863"
         d="m 188.2843,-120 c 0,13.80712 -11.19288,25 -25,25 -13.80712,0 -25,-11.19288 -25,-25 0,-13.80712 11.19288,-25 25,-25 13.80712,0 25,11.19288 25,25 z" />
    </g>
    <g
       fill="red"
       transform="matrix(1,0,0,1,445,561)"
       stroke="red"
       id="g3865">
      <circle
         r="25"
         clip-path="url(#clipPath2)"
         cx="163.2843"
         cy="-440"
         stroke="none"
         id="circle3867"
         d="m 188.2843,-440 c 0,13.80712 -11.19288,25 -25,25 -13.80712,0 -25,-11.19288 -25,-25 0,-13.80712 11.19288,-25 25,-25 13.80712,0 25,11.19288 25,25 z" />
    </g>
    <g
       stroke-miterlimit="1.45"
       font-family="sans-serif"
       transform="matrix(1,0,0,1,445,561)"
       stroke-linecap="butt"
       id="g3869">
      <text
         x="144.045"
         xml:space="preserve"
         y="-435.8457"
         clip-path="url(#clipPath2)"
         stroke="none"
         id="text3871">proj1b</text>
      <circle
         fill="none"
         r="25"
         clip-path="url(#clipPath2)"
         cx="163.2843"
         cy="-440"
         id="circle3873"
         d="m 188.2843,-440 c 0,13.80712 -11.19288,25 -25,25 -13.80712,0 -25,-11.19288 -25,-25 0,-13.80712 11.19288,-25 25,-25 13.80712,0 25,11.19288 25,25 z" />
    </g>
    <g
       fill="rgb(0,204,255)"
       transform="matrix(1,0,0,1,445,561)"
       stroke="rgb(0,204,255)"
       id="g3875">
      <circle
         r="30"
         clip-path="url(#clipPath2)"
         cx="-400"
         cy="-513"
         stroke="none"
         id="circle3877"
         d="m -370,-513 c 0,16.56854 -13.43146,30 -30,30 -16.56854,0 -30,-13.43146 -30,-30 0,-16.56854 13.43146,-30 30,-30 16.56854,0 30,13.43146 30,30 z" />
    </g>
    <g
       stroke-miterlimit="1.45"
       font-family="sans-serif"
       transform="matrix(1,0,0,1,445,561)"
       stroke-linecap="butt"
       id="g3879">
      <text
         x="-409.9463"
         xml:space="preserve"
         y="-515.8301"
         clip-path="url(#clipPath2)"
         stroke="none"
         id="text3881">org</text>
      <text
         x="-426.9443"
         xml:space="preserve"
         y="-501.8613"
         clip-path="url(#clipPath2)"
         stroke="none"
         id="text3883">og group</text>
      <circle
         fill="none"
         r="30"
         clip-path="url(#clipPath2)"
         cx="-400"
         cy="-513"
         id="circle3885"
         d="m -370,-513 c 0,16.56854 -13.43146,30 -30,30 -16.56854,0 -30,-13.43146 -30,-30 0,-16.56854 13.43146,-30 30,-30 16.56854,0 30,13.43146 30,30 z" />
    </g>
    <g
       fill="red"
       transform="matrix(1,0,0,1,445,561)"
       stroke="red"
       id="g3887">
      <circle
         r="30"
         clip-path="url(#clipPath2)"
         cx="-142.7157"
         cy="-513"
         stroke="none"
         id="circle3889"
         d="m -112.7157,-513 c 0,16.56854 -13.43146,30 -30,30 -16.56854,0 -30,-13.43146 -30,-30 0,-16.56854 13.43146,-30 30,-30 16.56854,0 30,13.43146 30,30 z" />
    </g>
    <g
       stroke-miterlimit="1.45"
       font-family="sans-serif"
       transform="matrix(1,0,0,1,445,561)"
       stroke-linecap="butt"
       id="g3891">
      <text
         x="-154.329"
         xml:space="preserve"
         y="-515.8301"
         clip-path="url(#clipPath2)"
         stroke="none"
         id="text3893">proj</text>
      <text
         x="-185.1523"
         xml:space="preserve"
         y="-501.8613"
         clip-path="url(#clipPath2)"
         stroke="none"
         id="text3895">group content</text>
      <circle
         fill="none"
         r="30"
         clip-path="url(#clipPath2)"
         cx="-142.7157"
         cy="-513"
         id="circle3897"
         d="m -112.7157,-513 c 0,16.56854 -13.43146,30 -30,30 -16.56854,0 -30,-13.43146 -30,-30 0,-16.56854 13.43146,-30 30,-30 16.56854,0 30,13.43146 30,30 z" />
    </g>
    <g
       fill="rgb(0,204,255)"
       transform="matrix(1,0,0,1,445,561)"
       stroke="rgb(0,204,255)"
       id="g3899">
      <circle
         r="25"
         clip-path="url(#clipPath2)"
         cx="383"
         cy="-520"
         stroke="none"
         id="circle3901"
         d="m 408,-520 c 0,13.80712 -11.19288,25 -25,25 -13.80712,0 -25,-11.19288 -25,-25 0,-13.80712 11.19288,-25 25,-25 13.80712,0 25,11.19288 25,25 z" />
    </g>
    <g
       stroke-miterlimit="1.45"
       font-family="sans-serif"
       transform="matrix(1,0,0,1,445,561)"
       stroke-linecap="butt"
       id="g3903">
      <text
         x="369.2363"
         xml:space="preserve"
         y="-515.8457"
         clip-path="url(#clipPath2)"
         stroke="none"
         id="text3905">org2</text>
      <circle
         fill="none"
         r="25"
         clip-path="url(#clipPath2)"
         cx="383"
         cy="-520"
         id="circle3907"
         d="m 408,-520 c 0,13.80712 -11.19288,25 -25,25 -13.80712,0 -25,-11.19288 -25,-25 0,-13.80712 11.19288,-25 25,-25 13.80712,0 25,11.19288 25,25 z" />
    </g>
    <g
       fill="rgb(0,204,255)"
       transform="matrix(1,0,0,1,445,561)"
       stroke="rgb(0,204,255)"
       id="g3909">
      <circle
         r="25"
         clip-path="url(#clipPath2)"
         cx="539"
         cy="-520"
         stroke="none"
         id="circle3911"
         d="m 564,-520 c 0,13.80712 -11.19288,25 -25,25 -13.80712,0 -25,-11.19288 -25,-25 0,-13.80712 11.19288,-25 25,-25 13.80712,0 25,11.19288 25,25 z" />
    </g>
    <g
       stroke-miterlimit="1.45"
       font-family="sans-serif"
       transform="matrix(1,0,0,1,445,561)"
       stroke-linecap="butt"
       id="g3913">
      <text
         x="525.2363"
         xml:space="preserve"
         y="-515.8457"
         clip-path="url(#clipPath2)"
         stroke="none"
         id="text3915">org3</text>
      <circle
         fill="none"
         r="25"
         clip-path="url(#clipPath2)"
         cx="539"
         cy="-520"
         id="circle3917"
         d="m 564,-520 c 0,13.80712 -11.19288,25 -25,25 -13.80712,0 -25,-11.19288 -25,-25 0,-13.80712 11.19288,-25 25,-25 13.80712,0 25,11.19288 25,25 z" />
    </g>
    <g
       fill="red"
       transform="matrix(1,0,0,1,445,561)"
       stroke="red"
       id="g3919">
      <circle
         r="25"
         clip-path="url(#clipPath2)"
         cx="383"
         cy="-360"
         stroke="none"
         id="circle3921"
         d="m 408,-360 c 0,13.80712 -11.19288,25 -25,25 -13.80712,0 -25,-11.19288 -25,-25 0,-13.80712 11.19288,-25 25,-25 13.80712,0 25,11.19288 25,25 z" />
    </g>
    <g
       stroke-miterlimit="1.45"
       font-family="sans-serif"
       transform="matrix(1,0,0,1,445,561)"
       stroke-linecap="butt"
       id="g3923">
      <text
         x="363.7607"
         xml:space="preserve"
         y="-355.8457"
         clip-path="url(#clipPath2)"
         stroke="none"
         id="text3925">proj2b</text>
      <circle
         fill="none"
         r="25"
         clip-path="url(#clipPath2)"
         cx="383"
         cy="-360"
         id="circle3927"
         d="m 408,-360 c 0,13.80712 -11.19288,25 -25,25 -13.80712,0 -25,-11.19288 -25,-25 0,-13.80712 11.19288,-25 25,-25 13.80712,0 25,11.19288 25,25 z" />
    </g>
    <g
       fill="red"
       transform="matrix(1,0,0,1,445,561)"
       stroke="red"
       id="g3929">
      <circle
         r="25"
         clip-path="url(#clipPath2)"
         cx="539"
         cy="-360"
         stroke="none"
         id="circle3931"
         d="m 564,-360 c 0,13.80712 -11.19288,25 -25,25 -13.80712,0 -25,-11.19288 -25,-25 0,-13.80712 11.19288,-25 25,-25 13.80712,0 25,11.19288 25,25 z" />
    </g>
    <g
       stroke-miterlimit="1.45"
       font-family="sans-serif"
       transform="matrix(1,0,0,1,445,561)"
       stroke-linecap="butt"
       id="g3933">
      <text
         x="520.2705"
         xml:space="preserve"
         y="-355.8457"
         clip-path="url(#clipPath2)"
         stroke="none"
         id="text3935">proj2c</text>
      <circle
         fill="none"
         r="25"
         clip-path="url(#clipPath2)"
         cx="539"
         cy="-360"
         id="circle3937"
         d="m 564,-360 c 0,13.80712 -11.19288,25 -25,25 -13.80712,0 -25,-11.19288 -25,-25 0,-13.80712 11.19288,-25 25,-25 13.80712,0 25,11.19288 25,25 z" />
      <path
         fill="none"
         stroke-width="3"
         d="M50 -280 L119.5343 -280"
         clip-path="url(#clipPath2)"
         id="path3939" />
    </g>
    <g
       fill="white"
       stroke-width="3"
       stroke-miterlimit="1.45"
       transform="matrix(1,0,0,1,445,561)"
       stroke-linecap="butt"
       stroke="white"
       id="g3941">
      <path
         d="M138.2843 -280 L118.2843 -287.5 L118.2843 -272.5 Z"
         clip-path="url(#clipPath2)"
         stroke="none"
         id="path3943" />
      <path
         fill="none"
         stroke-width="1"
         d="M138.2843 -280 L118.2843 -287.5 L118.2843 -272.5 Z"
         clip-path="url(#clipPath2)"
         stroke="black"
         id="path3945" />
      <path
         fill="none"
         stroke-width="1"
         d="M41.5771 -415 L65 -415 L108.2843 -371.7157 L108.2843 -310.8088 L122.4264 -296.6667 L136.628 -296.6667"
         clip-path="url(#clipPath2)"
         stroke="black"
         id="path3947" />
      <path
         fill="black"
         stroke-width="1"
         d="M144.628 -296.6667 L132.628 -301.6667 L135.628 -296.6667 L132.628 -291.6667 Z"
         clip-path="url(#clipPath2)"
         stroke="none"
         id="path3949" />
      <path
         fill="none"
         stroke-width="1"
         d="M41.5771 -145 L65 -145 L108.2843 -188.2843 L108.2843 -249.1912 L122.4264 -263.3333 L136.628 -263.3333"
         clip-path="url(#clipPath2)"
         stroke="black"
         id="path3951" />
      <path
         fill="black"
         stroke-width="1"
         d="M144.628 -263.3333 L132.628 -268.3333 L135.628 -263.3333 L132.628 -258.3333 Z"
         clip-path="url(#clipPath2)"
         stroke="none"
         id="path3953" />
      <path
         fill="none"
         d="M41.5771 -452.5 L65 -452.5 L79.1421 -466.6422 L79.1421 -505.8578 L93.2843 -520 L119.5343 -520"
         clip-path="url(#clipPath2)"
         stroke="black"
         id="path3955" />
      <path
         d="M138.2843 -520 L118.2843 -527.5 L118.2843 -512.5 Z"
         clip-path="url(#clipPath2)"
         stroke="none"
         id="path3957" />
      <path
         fill="none"
         stroke-width="1"
         d="M138.2843 -520 L118.2843 -527.5 L118.2843 -512.5 Z"
         clip-path="url(#clipPath2)"
         stroke="black"
         id="path3959" />
      <path
         fill="none"
         stroke-width="1"
         d="M49.2188 -427.5 L68.2843 -427.5 L123.2843 -372.5 L133.628 -372.5"
         clip-path="url(#clipPath2)"
         stroke="black"
         id="path3961" />
      <path
         fill="black"
         stroke-width="1"
         d="M141.628 -372.5 L129.628 -377.5 L132.628 -372.5 L129.628 -367.5 Z"
         clip-path="url(#clipPath2)"
         stroke="none"
         id="path3963" />
      <path
         fill="none"
         d="M43.6562 -296.6667 L65 -296.6667 L79.1421 -310.8088 L79.1421 -333.3578 L93.2843 -347.5 L122.878 -347.5"
         clip-path="url(#clipPath2)"
         stroke="black"
         id="path3965" />
      <path
         d="M141.628 -347.5 L121.628 -355 L121.628 -340 Z"
         clip-path="url(#clipPath2)"
         stroke="none"
         id="path3967" />
      <path
         fill="none"
         stroke-width="1"
         d="M141.628 -347.5 L121.628 -355 L121.628 -340 Z"
         clip-path="url(#clipPath2)"
         stroke="black"
         id="path3969" />
      <path
         fill="none"
         d="M43.6562 -263.3333 L65 -263.3333 L79.1421 -249.1912 L79.1421 -226.6421 L93.2843 -212.5 L122.878 -212.5"
         clip-path="url(#clipPath2)"
         stroke="black"
         id="path3971" />
      <path
         d="M141.628 -212.5 L121.628 -220 L121.628 -205 Z"
         clip-path="url(#clipPath2)"
         stroke="none"
         id="path3973" />
      <path
         fill="none"
         stroke-width="1"
         d="M141.628 -212.5 L121.628 -220 L121.628 -205 Z"
         clip-path="url(#clipPath2)"
         stroke="black"
         id="path3975" />
      <path
         fill="none"
         stroke-width="1"
         d="M49.2188 -132.5 L68.2843 -132.5 L123.2843 -187.5 L133.628 -187.5"
         clip-path="url(#clipPath2)"
         stroke="black"
         id="path3977" />
      <path
         fill="black"
         stroke-width="1"
         d="M141.628 -187.5 L129.628 -192.5 L132.628 -187.5 L129.628 -182.5 Z"
         clip-path="url(#clipPath2)"
         stroke="none"
         id="path3979" />
      <path
         fill="none"
         d="M41.5771 -107.5 L65 -107.5 L79.1421 -93.3579 L79.1421 -54.1421 L93.2843 -40 L119.5343 -40"
         clip-path="url(#clipPath2)"
         stroke="black"
         id="path3981" />
      <path
         d="M138.2843 -40 L118.2843 -47.5 L118.2843 -32.5 Z"
         clip-path="url(#clipPath2)"
         stroke="none"
         id="path3983" />
      <path
         fill="none"
         stroke-width="1"
         d="M138.2843 -40 L118.2843 -47.5 L118.2843 -32.5 Z"
         clip-path="url(#clipPath2)"
         stroke="black"
         id="path3985" />
      <path
         fill="none"
         d="M49.2188 -120 L119.5343 -120"
         clip-path="url(#clipPath2)"
         stroke="black"
         id="path3987" />
      <path
         d="M138.2843 -120 L118.2843 -127.5 L118.2843 -112.5 Z"
         clip-path="url(#clipPath2)"
         stroke="none"
         id="path3989" />
      <path
         fill="none"
         stroke-width="1"
         d="M138.2843 -120 L118.2843 -127.5 L118.2843 -112.5 Z"
         clip-path="url(#clipPath2)"
         stroke="black"
         id="path3991" />
      <path
         fill="none"
         d="M49.2188 -440 L119.5343 -440"
         clip-path="url(#clipPath2)"
         stroke="black"
         id="path3993" />
      <path
         d="M138.2843 -440 L118.2843 -447.5 L118.2843 -432.5 Z"
         clip-path="url(#clipPath2)"
         stroke="none"
         id="path3995" />
      <path
         fill="none"
         stroke-width="1"
         d="M138.2843 -440 L118.2843 -447.5 L118.2843 -432.5 Z"
         clip-path="url(#clipPath2)"
         stroke="black"
         id="path3997" />
      <path
         fill="none"
         stroke-width="1"
         d="M-372.728 -525.5 L-177.9929 -525.5"
         clip-path="url(#clipPath2)"
         stroke="black"
         id="path3999" />
      <path
         fill="black"
         stroke-width="1"
         d="M-169.9929 -525.5 L-181.9929 -530.5 L-178.9929 -525.5 L-181.9929 -520.5 Z"
         clip-path="url(#clipPath2)"
         stroke="none"
         id="path4001" />
    </g>
    <g
       stroke-miterlimit="1.45"
       font-family="sans-serif"
       transform="matrix(1,0,0,1,445,561)"
       stroke-linecap="butt"
       id="g4003">
      <text
         x="-322.8677"
         xml:space="preserve"
         y="-532.3057"
         clip-path="url(#clipPath2)"
         stroke="none"
         id="text4005">collaborates to</text>
      <path
         fill="none"
         stroke-width="3"
         d="M-372.728 -500.5 L-188.7429 -500.5"
         clip-path="url(#clipPath2)"
         id="path4007" />
    </g>
    <g
       fill="white"
       stroke-width="3"
       stroke-miterlimit="1.45"
       transform="matrix(1,0,0,1,445,561)"
       stroke-linecap="butt"
       stroke="white"
       id="g4009">
      <path
         d="M-169.9929 -500.5 L-189.9929 -508 L-189.9929 -493 Z"
         clip-path="url(#clipPath2)"
         stroke="none"
         id="path4011" />
      <path
         fill="none"
         stroke-width="1"
         d="M-169.9929 -500.5 L-189.9929 -508 L-189.9929 -493 Z"
         clip-path="url(#clipPath2)"
         stroke="black"
         id="path4013" />
    </g>
    <g
       stroke-miterlimit="1.45"
       font-family="sans-serif"
       transform="matrix(1,0,0,1,445,561)"
       stroke-linecap="butt"
       id="g4015">
      <text
         x="-350.8559"
         xml:space="preserve"
         y="-487.3377"
         clip-path="url(#clipPath2)"
         stroke="none"
         id="text4017">creates + collaborates to</text>
    </g>
    <g
       fill="rgb(51,153,102)"
       stroke-width="2"
       stroke-miterlimit="1.45"
       transform="matrix(1,0,0,1,445,561)"
       stroke-linecap="butt"
       stroke="rgb(51,153,102)"
       id="g4019">
      <path
         fill="none"
         d="M408 -520 L514 -520"
         clip-path="url(#clipPath2)"
         id="path4021" />
    </g>
    <g
       stroke-miterlimit="1.45"
       font-family="sans-serif"
       transform="matrix(1,0,0,1,445,561)"
       stroke-linecap="butt"
       id="g4023">
      <text
         x="432.4501"
         xml:space="preserve"
         y="-528.0199"
         clip-path="url(#clipPath2)"
         stroke="none"
         id="text4025">weight=2</text>
      <path
         fill="none"
         stroke-width="3"
         d="M383 -495 L383 -403.75"
         clip-path="url(#clipPath2)"
         id="path4027" />
    </g>
    <g
       fill="white"
       stroke-width="3"
       stroke-miterlimit="1.45"
       transform="matrix(1,0,0,1,445,561)"
       stroke-linecap="butt"
       stroke="white"
       id="g4029">
      <path
         d="M383 -385 L390.5 -405 L375.5 -405 Z"
         clip-path="url(#clipPath2)"
         stroke="none"
         id="path4031" />
      <path
         fill="none"
         stroke-width="1"
         d="M383 -385 L390.5 -405 L375.5 -405 Z"
         clip-path="url(#clipPath2)"
         stroke="black"
         id="path4033" />
      <path
         fill="none"
         stroke-width="1"
         d="M521.5475 -502.1 L406.0373 -383.628"
         clip-path="url(#clipPath2)"
         stroke="black"
         id="path4035" />
      <path
         fill="black"
         stroke-width="1"
         d="M400.4525 -377.9 L412.4097 -383.0015 L406.7354 -384.344 L405.2497 -389.9825 Z"
         clip-path="url(#clipPath2)"
         stroke="none"
         id="path4037" />
      <path
         fill="none"
         d="M400.4525 -502.1 L508.4581 -391.325"
         clip-path="url(#clipPath2)"
         stroke="black"
         id="path4039" />
      <path
         d="M521.5475 -377.9 L512.9555 -397.4557 L502.2155 -386.9843 Z"
         clip-path="url(#clipPath2)"
         stroke="none"
         id="path4041" />
      <path
         fill="none"
         stroke-width="1"
         d="M521.5475 -377.9 L512.9555 -397.4557 L502.2155 -386.9843 Z"
         clip-path="url(#clipPath2)"
         stroke="black"
         id="path4043" />
      <path
         fill="none"
         stroke-width="1"
         d="M539 -495 L539 -393"
         clip-path="url(#clipPath2)"
         stroke="black"
         id="path4045" />
      <path
         fill="black"
         stroke-width="1"
         d="M539 -385 L544 -397 L539 -394 L534 -397 Z"
         clip-path="url(#clipPath2)"
         stroke="none"
         id="path4047" />
    </g>
  </g>
  <g
     inkscape:groupmode="layer"
     id="layer1"
     inkscape:label="rel">
    <g
       id="g4828"
       transform="translate(48.607595,-22.683544)">
      <rect
         ry="8.0000095"
         rx="7.9923139"
         y="298.92297"
         x="756.44312"
         height="26.92378"
         width="95.951782"
         id="rect4054"
         style="color:#000000;fill:#339965;fill-opacity:1;fill-rule:nonzero;stroke:#337131;stroke-width:1;stroke-linecap:butt;stroke-linejoin:miter;stroke-miterlimit:4;stroke-opacity:1;stroke-dasharray:none;stroke-dashoffset:0;marker:none;visibility:visible;display:inline;overflow:visible;enable-background:accumulate" />
      <text
         sodipodi:linespacing="125%"
         id="text4056"
         y="316.96759"
         x="764.17657"
         style="font-size:14px;font-style:normal;font-variant:normal;font-weight:normal;font-stretch:normal;line-height:125%;letter-spacing:0px;word-spacing:0px;fill:#000000;fill-opacity:1;stroke:none;font-family:Arial;-inkscape-font-specification:Arial"
         xml:space="preserve"><tspan
           y="316.96759"
           x="764.17657"
           id="tspan4058"
           sodipodi:role="line">rel-org1-org2</tspan></text>
    </g>
    <text
       xml:space="preserve"
       style="font-size:14px;font-style:normal;font-variant:normal;font-weight:normal;font-stretch:normal;text-align:start;line-height:125%;letter-spacing:0px;word-spacing:0px;text-anchor:start;fill:#000000;fill-opacity:1;stroke:none;font-family:Arial;-inkscape-font-specification:Arial"
       x="804.46594"
       y="321.20251"
       id="text4833"
       sodipodi:linespacing="125%"><tspan
         sodipodi:role="line"
         id="tspan4835"
         x="804.46594"
         y="321.20251">org 1 and org2 collaborates at:</tspan><tspan
         sodipodi:role="line"
         x="804.46594"
         y="338.70251"
         id="tspan4837">- <tspan
   style="text-align:start;text-anchor:start;fill:#0000ff;fill-opacity:1"
   id="tspan4841">proj2b</tspan></tspan><tspan
         sodipodi:role="line"
         x="804.46594"
         y="356.20251"
         id="tspan4839">- <tspan
   style="text-align:start;text-anchor:start;fill:#0000ff;fill-opacity:1"
   id="tspan4843">proj2c</tspan></tspan></text>
  </g>
</svg>
